<?xml version="1.0" encoding="UTF-8"?>
<!-- Generated by Pixelmator Pro 4.0 -->
<svg width="800" height="800" viewBox="0 0 800 800" xmlns="http://www.w3.org/2000/svg">
    <path id="path1" fill="#000000" stroke="none" d="M 35.965626 32.351563 L 247.903137 288.012512 L 80.199997 237.403137 L 343.934357 411.350006 L 129.349991 350.171875 L 430.146881 524.96875 L 226.201553 522.21875 L 666.951538 719.275024 C 688.690613 730.521851 710.985962 740.584351 733.71405 749.346863 L 737.303101 750.729736 L 769.798401 765.260925 L 743.400024 706.167175 C 737.665588 691.924988 731.384399 677.895325 724.603149 664.095337 L 528.612549 225.375 L 530.321899 427.503113 L 356.800018 128.739075 L 416.928162 342.004669 L 243.603134 79.168762 L 293.109375 245.523438 L 35.965626 32.351563 Z M 474 470 C 613.900391 538.653931 643.352905 575.186218 712.996887 709.073425 C 576.071838 639.243652 544.878174 606.421509 474 470 Z"/>
</svg>
